# xmcd
#
# Track frame offsets:
#	150
#	11775
#	25733
#	36821
#	54352
#	65520
#	76861
#	89620
#	100540
#	120683
#
# Disc length: 1737 seconds
#
# Revision: 0
# Processed by: cddbd v1.5.2PL0 Copyright (c) Steve Scherf et al.
# Submitted via: dBpowerAMP V4.0
#
DISCID=7306c70a
DTITLE=Hiawasse Oprey Quartet - All Time Gospel Favorites
DYEAR=1999
DGENRE=Gospel
TTITLE0=I'm Living In Cannan Now
TTITLE1=On The Jericho Road
TTITLE2=CanaanLand Is Just In Sight
TTITLE3=Farther Along
TTITLE4=He Wrote My Name
TTITLE5=When God Dips His Love In My Heart
TTITLE6=He Touched Me
TTITLE7=Getting Ready To Leave This World
TTITLE8=Just A Closer Walk With Thee
TTITLE9=Lets All Go Down To The River
EXTD=Local Group Hiawassee GA
EXTT0=
EXTT1=
EXTT2=
EXTT3=
EXTT4=
EXTT5=
EXTT6=
EXTT7=
EXTT8=
EXTT9=
PLAYORDER=
